<svg xmlns="http://www.w3.org/2000/svg" viewBox="0 0 1400 420" width="1400" height="420" role="img" aria-label="Abstract graphic of arcs and curved planes"><title>Abstract graphic of arcs and curved planes</title><rect width="1400" height="420" fill="#F4F1EA"/><circle cx="267.07" cy="441" r="273.36" fill="#EBE7DC" opacity="1"/><path d="M 1197.66 196.45 A 58.8 58.8 0 0 1 1109.56 260.03" fill="none" stroke="#1C5344" stroke-width="0.91" opacity="0.45" stroke-linecap="round"/><path d="M 1254.88 182.89 A 117.6 117.6 0 0 1 1078.67 310.07" fill="none" stroke="#1C5344" stroke-width="0.89" opacity="0.4" stroke-linecap="round"/><path d="M 1312.09 169.34 A 176.4 176.4 0 0 1 1047.78 360.1" fill="none" stroke="#1C5344" stroke-width="1.27" opacity="0.36" stroke-linecap="round"/><path d="M 1369.31 155.78 A 235.2 235.2 0 0 1 1016.9 410.14" fill="none" stroke="#1C5344" stroke-width="1.1" opacity="0.31" stroke-linecap="round"/><path d="M 1426.53 142.23 A 294 294 0 0 1 986.01 460.17" fill="none" stroke="#1C5344" stroke-width="0.92" opacity="0.26" stroke-linecap="round"/><path d="M 1483.74 128.67 A 352.8 352.8 0 0 1 955.12 510.2" fill="none" stroke="#1C5344" stroke-width="1.5" opacity="0.22" stroke-linecap="round"/><path d="M -40 369.6 C 329.78 322.46, 1107.37 402.6, 1440 355.46 L 1440 460 L -40 460 Z" fill="#1C5344" opacity="0.15"/></svg>
