<svg xmlns="http://www.w3.org/2000/svg" viewBox="0 0 800 600" width="800" height="600" role="img" aria-label="Abstract graphic of arcs and curved planes"><title>Abstract graphic of arcs and curved planes</title><rect width="800" height="600" fill="#EBE7DC"/><circle cx="471.28" cy="246.83" r="175.32" fill="#F4F1EA" opacity="1"/><path d="M 506.09 233.72 A 37.2 37.2 0 0 1 454.74 280.15" fill="none" stroke="#1C5344" stroke-width="1.48" opacity="0.55" stroke-linecap="round"/><path d="M 540.9 220.61 A 74.4 74.4 0 0 1 438.21 313.48" fill="none" stroke="#1C5344" stroke-width="1.33" opacity="0.48" stroke-linecap="round"/><path d="M 575.72 207.51 A 111.6 111.6 0 0 1 421.67 346.8" fill="none" stroke="#1C5344" stroke-width="1.25" opacity="0.41" stroke-linecap="round"/><path d="M 610.53 194.4 A 148.8 148.8 0 0 1 405.14 380.12" fill="none" stroke="#1C5344" stroke-width="0.99" opacity="0.34" stroke-linecap="round"/><path d="M 645.35 181.29 A 186 186 0 0 1 388.6 413.45" fill="none" stroke="#1C5344" stroke-width="1.38" opacity="0.28" stroke-linecap="round"/><path d="M 369.03 246.83 A 102.25 167.3 0 0 1 573.53 246.83" fill="none" stroke="#1C5344" stroke-width="1.6" stroke-linecap="round"/><path d="M 369.03 246.83 A 102.25 167.3 0 0 0 573.53 246.83" fill="none" stroke="#1C5344" stroke-width="1.6" stroke-linecap="round"/><path d="M -40 474.26 C 228.39 448.02, 520.74 492.62, 840 466.38 L 840 640 L -40 640 Z" fill="#1C5344" opacity="0.16"/><path d="M -40 564 C 240.44 543.59, 536.15 578.29, 840 557.88 L 840 640 L -40 640 Z" fill="#1C5344" opacity="0.85"/></svg>
